<?xml version="1.0" encoding="UTF-8" standalone="no"?>
<!-- Created with Digital by H.Neemann -->
<!-- created: Sat Sep 19 18:09:52 CEST 2020 -->

<svg
   xmlns:svg="http://www.w3.org/2000/svg"
   xmlns="http://www.w3.org/2000/svg"
   width="190.35mm"
   height="84.15mm"
   viewBox="396 63 1269 561">
<g stroke-linecap="square">
<path d="M 980,320 L 1000,320" stroke="#0000b2" stroke-width="4.0" fill="none"/>
<path d="M 680,320 L 700,320" stroke="#0000b2" stroke-width="4.0" fill="none"/>
<path d="M 540,320 L 560,320" stroke="#0000b2" stroke-width="4.0" fill="none"/>
<path d="M 980,480 L 1000,480" stroke="#0000b2" stroke-width="4.0" fill="none"/>
<path d="M 680,480 L 700,480" stroke="#0000b2" stroke-width="4.0" fill="none"/>
<path d="M 540,480 L 560,480" stroke="#0000b2" stroke-width="4.0" fill="none"/>
<path d="M 980,160 L 1020,160" stroke="#0000b2" stroke-width="4.0" fill="none"/>
<path d="M 680,160 L 700,160" stroke="#0000b2" stroke-width="4.0" fill="none"/>
<path d="M 1340,460 L 1340,420 L 1360,420" stroke="#0000b2" stroke-width="4.0" fill="none"/>
<path d="M 1480,420 L 1540,420 L 1540,260 L 1340,260 L 1340,340 L 1360,340" stroke="#0000b2" stroke-width="4.0" fill="none"/>
<path d="M 980,360 L 1000,360" stroke="#0000b2" stroke-width="4.0" fill="none"/>
<path d="M 680,360 L 700,360" stroke="#0000b2" stroke-width="4.0" fill="none"/>
<path d="M 540,360 L 560,360" stroke="#0000b2" stroke-width="4.0" fill="none"/>
<path d="M 980,520 L 1000,520" stroke="#0000b2" stroke-width="4.0" fill="none"/>
<path d="M 680,520 L 700,520" stroke="#0000b2" stroke-width="4.0" fill="none"/>
<path d="M 540,520 L 560,520" stroke="#0000b2" stroke-width="4.0" fill="none"/>
<path d="M 1480,300 L 1500,300 L 1500,280" stroke="#0000b2" stroke-width="4.0" fill="none"/>
<path d="M 1300,300 L 1360,300" stroke="#0000b2" stroke-width="4.0" fill="none"/>
<path d="M 1480,460 L 1500,460 L 1500,480" stroke="#0000b2" stroke-width="4.0" fill="none"/>
<path d="M 980,80 L 1020,80" stroke="#0000b2" stroke-width="4.0" fill="none"/>
<path d="M 620,80 L 660,80" stroke="#0000b2" stroke-width="4.0" fill="none"/>
<path d="M 980,400 L 1000,400" stroke="#0000b2" stroke-width="4.0" fill="none"/>
<path d="M 680,400 L 700,400" stroke="#0000b2" stroke-width="4.0" fill="none"/>
<path d="M 540,400 L 560,400" stroke="#0000b2" stroke-width="4.0" fill="none"/>
<path d="M 980,560 L 1000,560" stroke="#0000b2" stroke-width="4.0" fill="none"/>
<path d="M 680,560 L 700,560" stroke="#0000b2" stroke-width="4.0" fill="none"/>
<path d="M 540,560 L 560,560" stroke="#0000b2" stroke-width="4.0" fill="none"/>
<path d="M 1120,240 L 1140,240 L 1140,220" stroke="#0000b2" stroke-width="4.0" fill="none"/>
<path d="M 680,240 L 700,240 L 700,220" stroke="#0000b2" stroke-width="4.0" fill="none"/>
<path d="M 540,240 L 560,240" stroke="#0000b2" stroke-width="4.0" fill="none"/>
<path d="M 980,240 L 1000,240" stroke="#0000b2" stroke-width="4.0" fill="none"/>
<path d="M 1300,500 L 1360,500" stroke="#0000b2" stroke-width="4.0" fill="none"/>
<path d="M 1480,500 L 1560,500 L 1560,340" stroke="#0000b2" stroke-width="4.0" fill="none"/>
<path d="M 1480,340 L 1560,340 L 1580,340" stroke="#0000b2" stroke-width="4.0" fill="none"/>
<path d="M 680,120 L 700,120" stroke="#0000b2" stroke-width="4.0" fill="none"/>
<path d="M 980,440 L 1000,440" stroke="#0000b2" stroke-width="4.0" fill="none"/>
<path d="M 680,440 L 700,440" stroke="#0000b2" stroke-width="4.0" fill="none"/>
<path d="M 540,440 L 560,440" stroke="#0000b2" stroke-width="4.0" fill="none"/>
<path d="M 980,620 L 980,600 L 1000,600" stroke="#0000b2" stroke-width="4.0" fill="none"/>
<path d="M 1120,600 L 1140,600" stroke="#0000b2" stroke-width="4.0" fill="none"/>
<path d="M 540,620 L 540,600 L 560,600" stroke="#0000b2" stroke-width="4.0" fill="none"/>
<path d="M 680,600 L 700,600" stroke="#0000b2" stroke-width="4.0" fill="none"/>
<path d="M 940,280 L 960,280" stroke="#0000b2" stroke-width="4.0" fill="none"/>
<path d="M 980,280 L 1000,280" stroke="#0000b2" stroke-width="4.0" fill="none"/>
<path d="M 680,280 L 700,280" stroke="#0000b2" stroke-width="4.0" fill="none"/>
<path d="M 720,280 L 740,280" stroke="#0000b2" stroke-width="4.0" fill="none"/>
<path d="M 500,280 L 520,280" stroke="#0000b2" stroke-width="4.0" fill="none"/>
<path d="M 540,280 L 560,280" stroke="#0000b2" stroke-width="4.0" fill="none"/>
<path d="M 1340,560 L 1340,540 L 1360,540" stroke="#0000b2" stroke-width="4.0" fill="none"/>
<path d="M 1480,540 L 1500,540 L 1500,580 L 1320,580 L 1320,460 L 1340,460 L 1360,460" stroke="#0000b2" stroke-width="4.0" fill="none"/>
<path d="M 1480,380 L 1520,380 L 1520,240 L 1320,240 L 1320,380 L 1360,380" stroke="#0000b2" stroke-width="4.0" fill="none"/>
<path d="M 970,620 L 990,620" stroke="#000000" stroke-width="6.0" fill="none"/>
<path d="M 530,620 L 550,620" stroke="#000000" stroke-width="6.0" fill="none"/>
<path d="M 1330,560 L 1350,560" stroke="#000000" stroke-width="6.0" fill="none"/>
<path d="M 1490,480 L 1510,480" stroke="#000000" stroke-width="6.0" fill="none"/>
<path d="M 960,280 L 970,280 L 980,280" stroke="#000000" stroke-width="4.0" fill="none"/>
<path d="M 980,320 L 970,320" stroke="#000000" stroke-width="4.0" fill="none"/>
<path d="M 980,360 L 970,360" stroke="#000000" stroke-width="4.0" fill="none"/>
<path d="M 980,400 L 970,400" stroke="#000000" stroke-width="4.0" fill="none"/>
<path d="M 980,440 L 970,440" stroke="#000000" stroke-width="4.0" fill="none"/>
<path d="M 980,480 L 970,480" stroke="#000000" stroke-width="4.0" fill="none"/>
<path d="M 980,520 L 970,520" stroke="#000000" stroke-width="4.0" fill="none"/>
<path d="M 980,560 L 970,560" stroke="#000000" stroke-width="4.0" fill="none"/>
<path d="M 1140,214 L 1140,220" stroke="#000000" stroke-width="4.0" fill="none"/>
<path d="M 700,280 L 710,280 L 720,280" stroke="#000000" stroke-width="4.0" fill="none"/>
<path d="M 700,320 L 710,320" stroke="#000000" stroke-width="4.0" fill="none"/>
<path d="M 700,360 L 710,360" stroke="#000000" stroke-width="4.0" fill="none"/>
<path d="M 700,400 L 710,400" stroke="#000000" stroke-width="4.0" fill="none"/>
<path d="M 700,440 L 710,440" stroke="#000000" stroke-width="4.0" fill="none"/>
<path d="M 700,480 L 710,480" stroke="#000000" stroke-width="4.0" fill="none"/>
<path d="M 700,520 L 710,520" stroke="#000000" stroke-width="4.0" fill="none"/>
<path d="M 700,560 L 710,560" stroke="#000000" stroke-width="4.0" fill="none"/>
<path d="M 520,280 L 530,280 L 540,280" stroke="#000000" stroke-width="4.0" fill="none"/>
<path d="M 540,320 L 530,320" stroke="#000000" stroke-width="4.0" fill="none"/>
<path d="M 540,360 L 530,360" stroke="#000000" stroke-width="4.0" fill="none"/>
<path d="M 540,400 L 530,400" stroke="#000000" stroke-width="4.0" fill="none"/>
<path d="M 540,440 L 530,440" stroke="#000000" stroke-width="4.0" fill="none"/>
<path d="M 540,480 L 530,480" stroke="#000000" stroke-width="4.0" fill="none"/>
<path d="M 540,520 L 530,520" stroke="#000000" stroke-width="4.0" fill="none"/>
<path d="M 540,560 L 530,560" stroke="#000000" stroke-width="4.0" fill="none"/>
<path d="M 700,214 L 700,220" stroke="#000000" stroke-width="4.0" fill="none"/>
<path d="M 1500,274 L 1500,280" stroke="#000000" stroke-width="4.0" fill="none"/>
<path d="M 660,80 L 670,80 L 680,80" stroke="#000000" stroke-width="4.0" fill="none"/>
<path d="M 680,120 L 670,120" stroke="#000000" stroke-width="4.0" fill="none"/>
<path d="M 680,160 L 670,160" stroke="#000000" stroke-width="4.0" fill="none"/>
<g>
<circle cx="1340.0" cy="460.0" r="4.0" stroke="#0000b2" stroke-width="4.0" fill="#0000b2" />
<circle cx="1560.0" cy="340.0" r="4.0" stroke="#0000b2" stroke-width="4.0" fill="#0000b2" />
</g>
<g>
<path d="M 1010,230 L 1002,230 L 1002,250 L 1010,250" stroke="#000000" stroke-width="4.0" fill="none"/>
<text text-anchor="start" x="1015.0" y="246.75" fill="#808080" style="font-size:18px"><tspan style="text-decoration:overline;">OC</tspan></text>
<path d="M 1110,230 L 1118,230 L 1118,250 L 1110,250" stroke="#000000" stroke-width="4.0" fill="none"/>
<text text-anchor="end" x="1105.0" y="246.75" fill="#808080" style="font-size:18px">VCC</text>
<path d="M 1010,270 L 1002,270 L 1002,290 L 1010,290" stroke="#000000" stroke-width="4.0" fill="none"/>
<text text-anchor="start" x="1015.0" y="286.75" fill="#808080" style="font-size:18px">D0</text>
<path d="M 1110,270 L 1118,270 L 1118,290 L 1110,290" stroke="#000000" stroke-width="4.0" fill="none"/>
<text text-anchor="end" x="1105.0" y="286.75" fill="#808080" style="font-size:18px">Q0</text>
<path d="M 1010,310 L 1002,310 L 1002,330 L 1010,330" stroke="#000000" stroke-width="4.0" fill="none"/>
<text text-anchor="start" x="1015.0" y="326.75" fill="#808080" style="font-size:18px">D1</text>
<path d="M 1110,310 L 1118,310 L 1118,330 L 1110,330" stroke="#000000" stroke-width="4.0" fill="none"/>
<text text-anchor="end" x="1105.0" y="326.75" fill="#808080" style="font-size:18px">Q1</text>
<path d="M 1010,350 L 1002,350 L 1002,370 L 1010,370" stroke="#000000" stroke-width="4.0" fill="none"/>
<text text-anchor="start" x="1015.0" y="366.75" fill="#808080" style="font-size:18px">D2</text>
<path d="M 1110,350 L 1118,350 L 1118,370 L 1110,370" stroke="#000000" stroke-width="4.0" fill="none"/>
<text text-anchor="end" x="1105.0" y="366.75" fill="#808080" style="font-size:18px">Q2</text>
<path d="M 1010,390 L 1002,390 L 1002,410 L 1010,410" stroke="#000000" stroke-width="4.0" fill="none"/>
<text text-anchor="start" x="1015.0" y="406.75" fill="#808080" style="font-size:18px">D3</text>
<path d="M 1110,390 L 1118,390 L 1118,410 L 1110,410" stroke="#000000" stroke-width="4.0" fill="none"/>
<text text-anchor="end" x="1105.0" y="406.75" fill="#808080" style="font-size:18px">Q3</text>
<path d="M 1010,430 L 1002,430 L 1002,450 L 1010,450" stroke="#000000" stroke-width="4.0" fill="none"/>
<text text-anchor="start" x="1015.0" y="446.75" fill="#808080" style="font-size:18px">D4</text>
<path d="M 1110,430 L 1118,430 L 1118,450 L 1110,450" stroke="#000000" stroke-width="4.0" fill="none"/>
<text text-anchor="end" x="1105.0" y="446.75" fill="#808080" style="font-size:18px">Q4</text>
<path d="M 1010,470 L 1002,470 L 1002,490 L 1010,490" stroke="#000000" stroke-width="4.0" fill="none"/>
<text text-anchor="start" x="1015.0" y="486.75" fill="#808080" style="font-size:18px">D5</text>
<path d="M 1110,470 L 1118,470 L 1118,490 L 1110,490" stroke="#000000" stroke-width="4.0" fill="none"/>
<text text-anchor="end" x="1105.0" y="486.75" fill="#808080" style="font-size:18px">Q5</text>
<path d="M 1010,510 L 1002,510 L 1002,530 L 1010,530" stroke="#000000" stroke-width="4.0" fill="none"/>
<text text-anchor="start" x="1015.0" y="526.75" fill="#808080" style="font-size:18px">D6</text>
<path d="M 1110,510 L 1118,510 L 1118,530 L 1110,530" stroke="#000000" stroke-width="4.0" fill="none"/>
<text text-anchor="end" x="1105.0" y="526.75" fill="#808080" style="font-size:18px">Q6</text>
<path d="M 1010,550 L 1002,550 L 1002,570 L 1010,570" stroke="#000000" stroke-width="4.0" fill="none"/>
<text text-anchor="start" x="1015.0" y="566.75" fill="#808080" style="font-size:18px">D7</text>
<path d="M 1110,550 L 1118,550 L 1118,570 L 1110,570" stroke="#000000" stroke-width="4.0" fill="none"/>
<text text-anchor="end" x="1105.0" y="566.75" fill="#808080" style="font-size:18px">Q7</text>
<path d="M 1010,590 L 1002,590 L 1002,610 L 1010,610" stroke="#000000" stroke-width="4.0" fill="none"/>
<text text-anchor="start" x="1015.0" y="606.75" fill="#808080" style="font-size:18px">GND</text>
<path d="M 1110,590 L 1118,590 L 1118,610 L 1110,610" stroke="#000000" stroke-width="4.0" fill="none"/>
<text text-anchor="end" x="1105.0" y="606.75" fill="#808080" style="font-size:18px">CLK</text>
<path d="M 1010,220 L 1050,220 C 1050,226 1054,230 1060,230 C 1066,230 1070,226 1070,220 L 1110,220 L 1110,620 L 1010,620 Z" stroke="#000000" stroke-width="4.0" fill="none"/>
<text text-anchor="end" x="1060.0" y="259.0" fill="#000000" style="font-size:24px" transform="rotate(-90,1060.0,250.0)" >74574</text>
<circle cx="1000.0" cy="240.0" r="2.0" stroke="#0000b2" stroke-width="4.0" fill="#0000b2" />
<circle cx="1000.0" cy="280.0" r="2.0" stroke="#0000b2" stroke-width="4.0" fill="#0000b2" />
<circle cx="1000.0" cy="320.0" r="2.0" stroke="#0000b2" stroke-width="4.0" fill="#0000b2" />
<circle cx="1000.0" cy="360.0" r="2.0" stroke="#0000b2" stroke-width="4.0" fill="#0000b2" />
<circle cx="1000.0" cy="400.0" r="2.0" stroke="#0000b2" stroke-width="4.0" fill="#0000b2" />
<circle cx="1000.0" cy="440.0" r="2.0" stroke="#0000b2" stroke-width="4.0" fill="#0000b2" />
<circle cx="1000.0" cy="480.0" r="2.0" stroke="#0000b2" stroke-width="4.0" fill="#0000b2" />
<circle cx="1000.0" cy="520.0" r="2.0" stroke="#0000b2" stroke-width="4.0" fill="#0000b2" />
<circle cx="1000.0" cy="560.0" r="2.0" stroke="#0000b2" stroke-width="4.0" fill="#0000b2" />
<circle cx="1000.0" cy="600.0" r="2.0" stroke="#0000b2" stroke-width="4.0" fill="#0000b2" />
<circle cx="1120.0" cy="600.0" r="2.0" stroke="#0000b2" stroke-width="4.0" fill="#0000b2" />
<circle cx="1120.0" cy="560.0" r="2.0" stroke="#b20000" stroke-width="4.0" fill="#b20000" />
<circle cx="1120.0" cy="520.0" r="2.0" stroke="#b20000" stroke-width="4.0" fill="#b20000" />
<circle cx="1120.0" cy="480.0" r="2.0" stroke="#b20000" stroke-width="4.0" fill="#b20000" />
<circle cx="1120.0" cy="440.0" r="2.0" stroke="#b20000" stroke-width="4.0" fill="#b20000" />
<circle cx="1120.0" cy="400.0" r="2.0" stroke="#b20000" stroke-width="4.0" fill="#b20000" />
<circle cx="1120.0" cy="360.0" r="2.0" stroke="#b20000" stroke-width="4.0" fill="#b20000" />
<circle cx="1120.0" cy="320.0" r="2.0" stroke="#b20000" stroke-width="4.0" fill="#b20000" />
<circle cx="1120.0" cy="280.0" r="2.0" stroke="#b20000" stroke-width="4.0" fill="#b20000" />
<circle cx="1120.0" cy="240.0" r="2.0" stroke="#0000b2" stroke-width="4.0" fill="#0000b2" />
</g>
<g>
<path d="M 980,160 L 966,152 L 966,168 Z" stroke="#000000" stroke-width="4.0" fill="none"/>
<text text-anchor="end" x="961.0" y="166.75" fill="#808080" style="font-size:18px">MainBus</text>
<circle cx="980.0" cy="160.0" r="2.0" stroke="#0000b2" stroke-width="4.0" fill="#0000b2" />
</g>
<g>
<circle cx="1036.0" cy="160.0" r="9.0" stroke="#000000" stroke-width="4.0" fill="none" />
<circle cx="1036.0" cy="160.0" r="15.0" stroke="#000000" stroke-width="4.0" fill="none" />
<text text-anchor="start" x="1065.0" y="169.0" fill="#000000" style="font-size:24px"><tspan style="font-style:italic;">MAIN</tspan></text>
<circle cx="1020.0" cy="160.0" r="2.0" stroke="#0000b2" stroke-width="4.0" fill="#0000b2" />
</g>
<g>
<path d="M 980,80 L 966,72 L 966,88 Z" stroke="#000000" stroke-width="4.0" fill="none"/>
<text text-anchor="end" x="961.0" y="86.75" fill="#808080" style="font-size:18px">MemData</text>
<circle cx="980.0" cy="80.0" r="2.0" stroke="#0000b2" stroke-width="4.0" fill="#0000b2" />
</g>
<g>
<text text-anchor="end" x="958.0" y="277.0" fill="#808080" style="font-size:12px">0-7</text>
<text text-anchor="start" x="982.0" y="277.0" fill="#808080" style="font-size:12px">0</text>
<text text-anchor="start" x="982.0" y="317.0" fill="#808080" style="font-size:12px">1</text>
<text text-anchor="start" x="982.0" y="357.0" fill="#808080" style="font-size:12px">2</text>
<text text-anchor="start" x="982.0" y="397.0" fill="#808080" style="font-size:12px">3</text>
<text text-anchor="start" x="982.0" y="437.0" fill="#808080" style="font-size:12px">4</text>
<text text-anchor="start" x="982.0" y="477.0" fill="#808080" style="font-size:12px">5</text>
<text text-anchor="start" x="982.0" y="517.0" fill="#808080" style="font-size:12px">6</text>
<text text-anchor="start" x="982.0" y="557.0" fill="#808080" style="font-size:12px">7</text>
<path d="M 968,278 L 972,278 L 972,562 L 968,562 Z" stroke="#000000" stroke-width="4.0" fill="#000000" fill-opacity="1.0"/>
<circle cx="960.0" cy="280.0" r="2.0" stroke="#0000b2" stroke-width="4.0" fill="#0000b2" />
<circle cx="980.0" cy="280.0" r="2.0" stroke="#b20000" stroke-width="4.0" fill="#b20000" />
<circle cx="980.0" cy="320.0" r="2.0" stroke="#b20000" stroke-width="4.0" fill="#b20000" />
<circle cx="980.0" cy="360.0" r="2.0" stroke="#b20000" stroke-width="4.0" fill="#b20000" />
<circle cx="980.0" cy="400.0" r="2.0" stroke="#b20000" stroke-width="4.0" fill="#b20000" />
<circle cx="980.0" cy="440.0" r="2.0" stroke="#b20000" stroke-width="4.0" fill="#b20000" />
<circle cx="980.0" cy="480.0" r="2.0" stroke="#b20000" stroke-width="4.0" fill="#b20000" />
<circle cx="980.0" cy="520.0" r="2.0" stroke="#b20000" stroke-width="4.0" fill="#b20000" />
<circle cx="980.0" cy="560.0" r="2.0" stroke="#b20000" stroke-width="4.0" fill="#b20000" />
</g>
<g>
<path d="M 940,280 L 926,272 L 926,288 Z" stroke="#000000" stroke-width="4.0" fill="none"/>
<text text-anchor="end" x="921.0" y="286.75" fill="#808080" style="font-size:18px">MemData</text>
<circle cx="940.0" cy="280.0" r="2.0" stroke="#0000b2" stroke-width="4.0" fill="#0000b2" />
</g>
<g>
<circle cx="980.0" cy="620.0" r="2.0" stroke="#b20000" stroke-width="4.0" fill="#b20000" />
</g>
<g>
<path d="M 1130,224 L 1140,211 L 1150,224" stroke="#000000" stroke-width="4.0" fill="none"/>
<circle cx="1140.0" cy="220.0" r="2.0" stroke="#b20000" stroke-width="4.0" fill="#b20000" />
</g>
<g>
<path d="M 589,65 L 619,65 L 619,95 L 589,95 Z" stroke="#000000" stroke-width="4.0" fill="none"/>
<circle cx="604.0" cy="80.0" r="9.0" stroke="#000000" stroke-width="4.0" fill="none" />
<text text-anchor="end" x="575.0" y="89.0" fill="#000000" style="font-size:24px"><tspan style="font-style:italic;">Control</tspan></text>
<circle cx="620.0" cy="80.0" r="2.0" stroke="#b20000" stroke-width="4.0" fill="#b20000" />
</g>
<g>
<path d="M 700,120 L 714,128 L 714,112 Z" stroke="#000000" stroke-width="4.0" fill="none"/>
<text text-anchor="start" x="719.0" y="126.75" fill="#808080" style="font-size:18px">Load</text>
<circle cx="700.0" cy="120.0" r="2.0" stroke="#0000b2" stroke-width="4.0" fill="#0000b2" />
</g>
<g>
<path d="M 700,160 L 714,168 L 714,152 Z" stroke="#000000" stroke-width="4.0" fill="none"/>
<text text-anchor="start" x="719.0" y="166.75" fill="#808080" style="font-size:18px">A-Main</text>
<circle cx="700.0" cy="160.0" r="2.0" stroke="#0000b2" stroke-width="4.0" fill="#0000b2" />
</g>
<g>
<path d="M 1140,600 L 1154,608 L 1154,592 Z" stroke="#000000" stroke-width="4.0" fill="none"/>
<text text-anchor="start" x="1159.0" y="606.75" fill="#808080" style="font-size:18px">Load</text>
<circle cx="1140.0" cy="600.0" r="2.0" stroke="#0000b2" stroke-width="4.0" fill="#0000b2" />
</g>
<g>
<path d="M 570,230 L 562,230 L 562,250 L 570,250" stroke="#000000" stroke-width="4.0" fill="none"/>
<text text-anchor="start" x="575.0" y="246.75" fill="#808080" style="font-size:18px"><tspan style="text-decoration:overline;">OC</tspan></text>
<path d="M 670,230 L 678,230 L 678,250 L 670,250" stroke="#000000" stroke-width="4.0" fill="none"/>
<text text-anchor="end" x="665.0" y="246.75" fill="#808080" style="font-size:18px">VCC</text>
<path d="M 570,270 L 562,270 L 562,290 L 570,290" stroke="#000000" stroke-width="4.0" fill="none"/>
<text text-anchor="start" x="575.0" y="286.75" fill="#808080" style="font-size:18px">D0</text>
<path d="M 670,270 L 678,270 L 678,290 L 670,290" stroke="#000000" stroke-width="4.0" fill="none"/>
<text text-anchor="end" x="665.0" y="286.75" fill="#808080" style="font-size:18px">Q0</text>
<path d="M 570,310 L 562,310 L 562,330 L 570,330" stroke="#000000" stroke-width="4.0" fill="none"/>
<text text-anchor="start" x="575.0" y="326.75" fill="#808080" style="font-size:18px">D1</text>
<path d="M 670,310 L 678,310 L 678,330 L 670,330" stroke="#000000" stroke-width="4.0" fill="none"/>
<text text-anchor="end" x="665.0" y="326.75" fill="#808080" style="font-size:18px">Q1</text>
<path d="M 570,350 L 562,350 L 562,370 L 570,370" stroke="#000000" stroke-width="4.0" fill="none"/>
<text text-anchor="start" x="575.0" y="366.75" fill="#808080" style="font-size:18px">D2</text>
<path d="M 670,350 L 678,350 L 678,370 L 670,370" stroke="#000000" stroke-width="4.0" fill="none"/>
<text text-anchor="end" x="665.0" y="366.75" fill="#808080" style="font-size:18px">Q2</text>
<path d="M 570,390 L 562,390 L 562,410 L 570,410" stroke="#000000" stroke-width="4.0" fill="none"/>
<text text-anchor="start" x="575.0" y="406.75" fill="#808080" style="font-size:18px">D3</text>
<path d="M 670,390 L 678,390 L 678,410 L 670,410" stroke="#000000" stroke-width="4.0" fill="none"/>
<text text-anchor="end" x="665.0" y="406.75" fill="#808080" style="font-size:18px">Q3</text>
<path d="M 570,430 L 562,430 L 562,450 L 570,450" stroke="#000000" stroke-width="4.0" fill="none"/>
<text text-anchor="start" x="575.0" y="446.75" fill="#808080" style="font-size:18px">D4</text>
<path d="M 670,430 L 678,430 L 678,450 L 670,450" stroke="#000000" stroke-width="4.0" fill="none"/>
<text text-anchor="end" x="665.0" y="446.75" fill="#808080" style="font-size:18px">Q4</text>
<path d="M 570,470 L 562,470 L 562,490 L 570,490" stroke="#000000" stroke-width="4.0" fill="none"/>
<text text-anchor="start" x="575.0" y="486.75" fill="#808080" style="font-size:18px">D5</text>
<path d="M 670,470 L 678,470 L 678,490 L 670,490" stroke="#000000" stroke-width="4.0" fill="none"/>
<text text-anchor="end" x="665.0" y="486.75" fill="#808080" style="font-size:18px">Q5</text>
<path d="M 570,510 L 562,510 L 562,530 L 570,530" stroke="#000000" stroke-width="4.0" fill="none"/>
<text text-anchor="start" x="575.0" y="526.75" fill="#808080" style="font-size:18px">D6</text>
<path d="M 670,510 L 678,510 L 678,530 L 670,530" stroke="#000000" stroke-width="4.0" fill="none"/>
<text text-anchor="end" x="665.0" y="526.75" fill="#808080" style="font-size:18px">Q6</text>
<path d="M 570,550 L 562,550 L 562,570 L 570,570" stroke="#000000" stroke-width="4.0" fill="none"/>
<text text-anchor="start" x="575.0" y="566.75" fill="#808080" style="font-size:18px">D7</text>
<path d="M 670,550 L 678,550 L 678,570 L 670,570" stroke="#000000" stroke-width="4.0" fill="none"/>
<text text-anchor="end" x="665.0" y="566.75" fill="#808080" style="font-size:18px">Q7</text>
<path d="M 570,590 L 562,590 L 562,610 L 570,610" stroke="#000000" stroke-width="4.0" fill="none"/>
<text text-anchor="start" x="575.0" y="606.75" fill="#808080" style="font-size:18px">GND</text>
<path d="M 670,590 L 678,590 L 678,610 L 670,610" stroke="#000000" stroke-width="4.0" fill="none"/>
<text text-anchor="end" x="665.0" y="606.75" fill="#808080" style="font-size:18px">CLK</text>
<path d="M 570,220 L 610,220 C 610,226 614,230 620,230 C 626,230 630,226 630,220 L 670,220 L 670,620 L 570,620 Z" stroke="#000000" stroke-width="4.0" fill="none"/>
<text text-anchor="end" x="620.0" y="259.0" fill="#000000" style="font-size:24px" transform="rotate(-90,620.0,250.0)" >74574</text>
<circle cx="560.0" cy="240.0" r="2.0" stroke="#0000b2" stroke-width="4.0" fill="#0000b2" />
<circle cx="560.0" cy="280.0" r="2.0" stroke="#0000b2" stroke-width="4.0" fill="#0000b2" />
<circle cx="560.0" cy="320.0" r="2.0" stroke="#0000b2" stroke-width="4.0" fill="#0000b2" />
<circle cx="560.0" cy="360.0" r="2.0" stroke="#0000b2" stroke-width="4.0" fill="#0000b2" />
<circle cx="560.0" cy="400.0" r="2.0" stroke="#0000b2" stroke-width="4.0" fill="#0000b2" />
<circle cx="560.0" cy="440.0" r="2.0" stroke="#0000b2" stroke-width="4.0" fill="#0000b2" />
<circle cx="560.0" cy="480.0" r="2.0" stroke="#0000b2" stroke-width="4.0" fill="#0000b2" />
<circle cx="560.0" cy="520.0" r="2.0" stroke="#0000b2" stroke-width="4.0" fill="#0000b2" />
<circle cx="560.0" cy="560.0" r="2.0" stroke="#0000b2" stroke-width="4.0" fill="#0000b2" />
<circle cx="560.0" cy="600.0" r="2.0" stroke="#0000b2" stroke-width="4.0" fill="#0000b2" />
<circle cx="680.0" cy="600.0" r="2.0" stroke="#0000b2" stroke-width="4.0" fill="#0000b2" />
<circle cx="680.0" cy="560.0" r="2.0" stroke="#b20000" stroke-width="4.0" fill="#b20000" />
<circle cx="680.0" cy="520.0" r="2.0" stroke="#b20000" stroke-width="4.0" fill="#b20000" />
<circle cx="680.0" cy="480.0" r="2.0" stroke="#b20000" stroke-width="4.0" fill="#b20000" />
<circle cx="680.0" cy="440.0" r="2.0" stroke="#b20000" stroke-width="4.0" fill="#b20000" />
<circle cx="680.0" cy="400.0" r="2.0" stroke="#b20000" stroke-width="4.0" fill="#b20000" />
<circle cx="680.0" cy="360.0" r="2.0" stroke="#b20000" stroke-width="4.0" fill="#b20000" />
<circle cx="680.0" cy="320.0" r="2.0" stroke="#b20000" stroke-width="4.0" fill="#b20000" />
<circle cx="680.0" cy="280.0" r="2.0" stroke="#b20000" stroke-width="4.0" fill="#b20000" />
<circle cx="680.0" cy="240.0" r="2.0" stroke="#0000b2" stroke-width="4.0" fill="#0000b2" />
</g>
<g>
<text text-anchor="end" x="698.0" y="277.0" fill="#808080" style="font-size:12px">0</text>
<text text-anchor="end" x="698.0" y="317.0" fill="#808080" style="font-size:12px">1</text>
<text text-anchor="end" x="698.0" y="357.0" fill="#808080" style="font-size:12px">2</text>
<text text-anchor="end" x="698.0" y="397.0" fill="#808080" style="font-size:12px">3</text>
<text text-anchor="end" x="698.0" y="437.0" fill="#808080" style="font-size:12px">4</text>
<text text-anchor="end" x="698.0" y="477.0" fill="#808080" style="font-size:12px">5</text>
<text text-anchor="end" x="698.0" y="517.0" fill="#808080" style="font-size:12px">6</text>
<text text-anchor="end" x="698.0" y="557.0" fill="#808080" style="font-size:12px">7</text>
<text text-anchor="start" x="722.0" y="277.0" fill="#808080" style="font-size:12px">0-7</text>
<path d="M 708,278 L 712,278 L 712,562 L 708,562 Z" stroke="#000000" stroke-width="4.0" fill="#000000" fill-opacity="1.0"/>
<circle cx="700.0" cy="280.0" r="2.0" stroke="#0000b2" stroke-width="4.0" fill="#0000b2" />
<circle cx="700.0" cy="320.0" r="2.0" stroke="#0000b2" stroke-width="4.0" fill="#0000b2" />
<circle cx="700.0" cy="360.0" r="2.0" stroke="#0000b2" stroke-width="4.0" fill="#0000b2" />
<circle cx="700.0" cy="400.0" r="2.0" stroke="#0000b2" stroke-width="4.0" fill="#0000b2" />
<circle cx="700.0" cy="440.0" r="2.0" stroke="#0000b2" stroke-width="4.0" fill="#0000b2" />
<circle cx="700.0" cy="480.0" r="2.0" stroke="#0000b2" stroke-width="4.0" fill="#0000b2" />
<circle cx="700.0" cy="520.0" r="2.0" stroke="#0000b2" stroke-width="4.0" fill="#0000b2" />
<circle cx="700.0" cy="560.0" r="2.0" stroke="#0000b2" stroke-width="4.0" fill="#0000b2" />
<circle cx="720.0" cy="280.0" r="2.0" stroke="#b20000" stroke-width="4.0" fill="#b20000" />
</g>
<g>
<path d="M 740,280 L 754,288 L 754,272 Z" stroke="#000000" stroke-width="4.0" fill="none"/>
<text text-anchor="start" x="759.0" y="286.75" fill="#808080" style="font-size:18px">MainBus</text>
<circle cx="740.0" cy="280.0" r="2.0" stroke="#0000b2" stroke-width="4.0" fill="#0000b2" />
</g>
<g>
<text text-anchor="end" x="518.0" y="277.0" fill="#808080" style="font-size:12px">0-7</text>
<text text-anchor="start" x="542.0" y="277.0" fill="#808080" style="font-size:12px">0</text>
<text text-anchor="start" x="542.0" y="317.0" fill="#808080" style="font-size:12px">1</text>
<text text-anchor="start" x="542.0" y="357.0" fill="#808080" style="font-size:12px">2</text>
<text text-anchor="start" x="542.0" y="397.0" fill="#808080" style="font-size:12px">3</text>
<text text-anchor="start" x="542.0" y="437.0" fill="#808080" style="font-size:12px">4</text>
<text text-anchor="start" x="542.0" y="477.0" fill="#808080" style="font-size:12px">5</text>
<text text-anchor="start" x="542.0" y="517.0" fill="#808080" style="font-size:12px">6</text>
<text text-anchor="start" x="542.0" y="557.0" fill="#808080" style="font-size:12px">7</text>
<path d="M 528,278 L 532,278 L 532,562 L 528,562 Z" stroke="#000000" stroke-width="4.0" fill="#000000" fill-opacity="1.0"/>
<circle cx="520.0" cy="280.0" r="2.0" stroke="#0000b2" stroke-width="4.0" fill="#0000b2" />
<circle cx="540.0" cy="280.0" r="2.0" stroke="#b20000" stroke-width="4.0" fill="#b20000" />
<circle cx="540.0" cy="320.0" r="2.0" stroke="#b20000" stroke-width="4.0" fill="#b20000" />
<circle cx="540.0" cy="360.0" r="2.0" stroke="#b20000" stroke-width="4.0" fill="#b20000" />
<circle cx="540.0" cy="400.0" r="2.0" stroke="#b20000" stroke-width="4.0" fill="#b20000" />
<circle cx="540.0" cy="440.0" r="2.0" stroke="#b20000" stroke-width="4.0" fill="#b20000" />
<circle cx="540.0" cy="480.0" r="2.0" stroke="#b20000" stroke-width="4.0" fill="#b20000" />
<circle cx="540.0" cy="520.0" r="2.0" stroke="#b20000" stroke-width="4.0" fill="#b20000" />
<circle cx="540.0" cy="560.0" r="2.0" stroke="#b20000" stroke-width="4.0" fill="#b20000" />
</g>
<g>
<path d="M 500,280 L 486,272 L 486,288 Z" stroke="#000000" stroke-width="4.0" fill="none"/>
<text text-anchor="end" x="481.0" y="286.75" fill="#808080" style="font-size:18px">MemData</text>
<circle cx="500.0" cy="280.0" r="2.0" stroke="#0000b2" stroke-width="4.0" fill="#0000b2" />
</g>
<g>
<circle cx="540.0" cy="620.0" r="2.0" stroke="#b20000" stroke-width="4.0" fill="#b20000" />
</g>
<g>
<path d="M 690,224 L 700,211 L 710,224" stroke="#000000" stroke-width="4.0" fill="none"/>
<circle cx="700.0" cy="220.0" r="2.0" stroke="#b20000" stroke-width="4.0" fill="#b20000" />
</g>
<g>
<path d="M 700,600 L 714,608 L 714,592 Z" stroke="#000000" stroke-width="4.0" fill="none"/>
<text text-anchor="start" x="719.0" y="606.75" fill="#808080" style="font-size:18px">Load</text>
<circle cx="700.0" cy="600.0" r="2.0" stroke="#0000b2" stroke-width="4.0" fill="#0000b2" />
</g>
<g>
<path d="M 540,240 L 526,232 L 526,248 Z" stroke="#000000" stroke-width="4.0" fill="none"/>
<text text-anchor="end" x="521.0" y="246.75" fill="#808080" style="font-size:18px">A-Main</text>
<circle cx="540.0" cy="240.0" r="2.0" stroke="#0000b2" stroke-width="4.0" fill="#0000b2" />
</g>
<g>
<path d="M 1370,290 L 1362,290 L 1362,310 L 1370,310" stroke="#000000" stroke-width="4.0" fill="none"/>
<text text-anchor="start" x="1375.0" y="306.75" fill="#808080" style="font-size:18px">1A</text>
<path d="M 1470,290 L 1478,290 L 1478,310 L 1470,310" stroke="#000000" stroke-width="4.0" fill="none"/>
<text text-anchor="end" x="1465.0" y="306.75" fill="#808080" style="font-size:18px">VCC</text>
<path d="M 1370,330 L 1362,330 L 1362,350 L 1370,350" stroke="#000000" stroke-width="4.0" fill="none"/>
<text text-anchor="start" x="1375.0" y="346.75" fill="#808080" style="font-size:18px">1B</text>
<path d="M 1470,330 L 1478,330 L 1478,350 L 1470,350" stroke="#000000" stroke-width="4.0" fill="none"/>
<text text-anchor="end" x="1465.0" y="346.75" fill="#808080" style="font-size:18px">4B</text>
<path d="M 1370,370 L 1362,370 L 1362,390 L 1370,390" stroke="#000000" stroke-width="4.0" fill="none"/>
<text text-anchor="start" x="1375.0" y="386.75" fill="#808080" style="font-size:18px">1Y</text>
<path d="M 1470,370 L 1478,370 L 1478,390 L 1470,390" stroke="#000000" stroke-width="4.0" fill="none"/>
<text text-anchor="end" x="1465.0" y="386.75" fill="#808080" style="font-size:18px">4A</text>
<path d="M 1370,410 L 1362,410 L 1362,430 L 1370,430" stroke="#000000" stroke-width="4.0" fill="none"/>
<text text-anchor="start" x="1375.0" y="426.75" fill="#808080" style="font-size:18px">2A</text>
<path d="M 1470,410 L 1478,410 L 1478,430 L 1470,430" stroke="#000000" stroke-width="4.0" fill="none"/>
<text text-anchor="end" x="1465.0" y="426.75" fill="#808080" style="font-size:18px">4Y</text>
<path d="M 1370,450 L 1362,450 L 1362,470 L 1370,470" stroke="#000000" stroke-width="4.0" fill="none"/>
<text text-anchor="start" x="1375.0" y="466.75" fill="#808080" style="font-size:18px">2B</text>
<path d="M 1470,450 L 1478,450 L 1478,470 L 1470,470" stroke="#000000" stroke-width="4.0" fill="none"/>
<text text-anchor="end" x="1465.0" y="466.75" fill="#808080" style="font-size:18px">3B</text>
<path d="M 1370,490 L 1362,490 L 1362,510 L 1370,510" stroke="#000000" stroke-width="4.0" fill="none"/>
<text text-anchor="start" x="1375.0" y="506.75" fill="#808080" style="font-size:18px">2Y</text>
<path d="M 1470,490 L 1478,490 L 1478,510 L 1470,510" stroke="#000000" stroke-width="4.0" fill="none"/>
<text text-anchor="end" x="1465.0" y="506.75" fill="#808080" style="font-size:18px">3A</text>
<path d="M 1370,530 L 1362,530 L 1362,550 L 1370,550" stroke="#000000" stroke-width="4.0" fill="none"/>
<text text-anchor="start" x="1375.0" y="546.75" fill="#808080" style="font-size:18px">GND</text>
<path d="M 1470,530 L 1478,530 L 1478,550 L 1470,550" stroke="#000000" stroke-width="4.0" fill="none"/>
<text text-anchor="end" x="1465.0" y="546.75" fill="#808080" style="font-size:18px">3Y</text>
<path d="M 1370,280 L 1410,280 C 1410,286 1414,290 1420,290 C 1426,290 1430,286 1430,280 L 1470,280 L 1470,560 L 1370,560 Z" stroke="#000000" stroke-width="4.0" fill="none"/>
<text text-anchor="end" x="1420.0" y="319.0" fill="#000000" style="font-size:24px" transform="rotate(-90,1420.0,310.0)" >7400</text>
<circle cx="1360.0" cy="300.0" r="2.0" stroke="#0000b2" stroke-width="4.0" fill="#0000b2" />
<circle cx="1360.0" cy="340.0" r="2.0" stroke="#0000b2" stroke-width="4.0" fill="#0000b2" />
<circle cx="1360.0" cy="380.0" r="2.0" stroke="#b20000" stroke-width="4.0" fill="#b20000" />
<circle cx="1360.0" cy="420.0" r="2.0" stroke="#0000b2" stroke-width="4.0" fill="#0000b2" />
<circle cx="1360.0" cy="460.0" r="2.0" stroke="#0000b2" stroke-width="4.0" fill="#0000b2" />
<circle cx="1360.0" cy="500.0" r="2.0" stroke="#b20000" stroke-width="4.0" fill="#b20000" />
<circle cx="1360.0" cy="540.0" r="2.0" stroke="#0000b2" stroke-width="4.0" fill="#0000b2" />
<circle cx="1480.0" cy="540.0" r="2.0" stroke="#b20000" stroke-width="4.0" fill="#b20000" />
<circle cx="1480.0" cy="500.0" r="2.0" stroke="#0000b2" stroke-width="4.0" fill="#0000b2" />
<circle cx="1480.0" cy="460.0" r="2.0" stroke="#0000b2" stroke-width="4.0" fill="#0000b2" />
<circle cx="1480.0" cy="420.0" r="2.0" stroke="#b20000" stroke-width="4.0" fill="#b20000" />
<circle cx="1480.0" cy="380.0" r="2.0" stroke="#0000b2" stroke-width="4.0" fill="#0000b2" />
<circle cx="1480.0" cy="340.0" r="2.0" stroke="#0000b2" stroke-width="4.0" fill="#0000b2" />
<circle cx="1480.0" cy="300.0" r="2.0" stroke="#0000b2" stroke-width="4.0" fill="#0000b2" />
</g>
<g>
<path d="M 1490,284 L 1500,271 L 1510,284" stroke="#000000" stroke-width="4.0" fill="none"/>
<circle cx="1500.0" cy="280.0" r="2.0" stroke="#b20000" stroke-width="4.0" fill="#b20000" />
</g>
<g>
<circle cx="1340.0" cy="560.0" r="2.0" stroke="#b20000" stroke-width="4.0" fill="#b20000" />
</g>
<g>
<path d="M 1300,300 L 1286,292 L 1286,308 Z" stroke="#000000" stroke-width="4.0" fill="none"/>
<text text-anchor="end" x="1281.0" y="306.75" fill="#808080" style="font-size:18px">Load</text>
<circle cx="1300.0" cy="300.0" r="2.0" stroke="#0000b2" stroke-width="4.0" fill="#0000b2" />
</g>
<g>
<path d="M 1300,500 L 1286,492 L 1286,508 Z" stroke="#000000" stroke-width="4.0" fill="none"/>
<text text-anchor="end" x="1281.0" y="506.75" fill="#808080" style="font-size:18px">RegValid</text>
<circle cx="1300.0" cy="500.0" r="2.0" stroke="#0000b2" stroke-width="4.0" fill="#0000b2" />
</g>
<g>
<path d="M 980,240 L 966,232 L 966,248 Z" stroke="#000000" stroke-width="4.0" fill="none"/>
<text text-anchor="end" x="961.0" y="246.75" fill="#808080" style="font-size:18px">RegValid</text>
<circle cx="980.0" cy="240.0" r="2.0" stroke="#0000b2" stroke-width="4.0" fill="#0000b2" />
</g>
<g>
<path d="M 1580,340 L 1594,348 L 1594,332 Z" stroke="#000000" stroke-width="4.0" fill="none"/>
<text text-anchor="start" x="1599.0" y="346.75" fill="#808080" style="font-size:18px">A-Main</text>
<circle cx="1580.0" cy="340.0" r="2.0" stroke="#0000b2" stroke-width="4.0" fill="#0000b2" />
</g>
<g>
<path d="M 1051,95 L 1021,95 L 1021,65 L 1051,65 Z" stroke="#000000" stroke-width="4.0" fill="none"/>
<circle cx="1036.0" cy="80.0" r="9.0" stroke="#000000" stroke-width="4.0" fill="none" />
<text text-anchor="start" x="1065.0" y="89.0" fill="#000000" style="font-size:24px"><tspan style="font-style:italic;">MEM</tspan></text>
<circle cx="1020.0" cy="80.0" r="2.0" stroke="#b20000" stroke-width="4.0" fill="#b20000" />
</g>
<g>
<circle cx="1500.0" cy="480.0" r="2.0" stroke="#b20000" stroke-width="4.0" fill="#b20000" />
</g>
<g>
<text text-anchor="end" x="658.0" y="77.0" fill="#808080" style="font-size:12px">0-2</text>
<text text-anchor="start" x="682.0" y="77.0" fill="#808080" style="font-size:12px">0</text>
<text text-anchor="start" x="682.0" y="117.0" fill="#808080" style="font-size:12px">1</text>
<text text-anchor="start" x="682.0" y="157.0" fill="#808080" style="font-size:12px">2</text>
<path d="M 668,78 L 672,78 L 672,162 L 668,162 Z" stroke="#000000" stroke-width="4.0" fill="#000000" fill-opacity="1.0"/>
<circle cx="660.0" cy="80.0" r="2.0" stroke="#0000b2" stroke-width="4.0" fill="#0000b2" />
<circle cx="680.0" cy="80.0" r="2.0" stroke="#b20000" stroke-width="4.0" fill="#b20000" />
<circle cx="680.0" cy="120.0" r="2.0" stroke="#b20000" stroke-width="4.0" fill="#b20000" />
<circle cx="680.0" cy="160.0" r="2.0" stroke="#b20000" stroke-width="4.0" fill="#b20000" />
</g>
</g>
</svg>