<?xml version="1.0" encoding="UTF-8" standalone="no"?>
<!-- Created with Digital by H.Neemann -->
<!-- created: Tue Sep 29 17:59:25 CEST 2020 -->

<svg
   xmlns:svg="http://www.w3.org/2000/svg"
   xmlns="http://www.w3.org/2000/svg"
   width="135.9mm"
   height="90.15mm"
   viewBox="238 163 906 601">
<g stroke-linecap="square">
<path d="M 980,580 L 1000,580" stroke="#0000b2" stroke-width="4.0" fill="none"/>
<path d="M 840,580 L 860,580" stroke="#0000b2" stroke-width="4.0" fill="none"/>
<path d="M 560,580 L 580,580" stroke="#0000b2" stroke-width="4.0" fill="none"/>
<path d="M 420,580 L 440,580" stroke="#0000b2" stroke-width="4.0" fill="none"/>
<path d="M 980,740 L 1000,740" stroke="#0000b2" stroke-width="4.0" fill="none"/>
<path d="M 840,760 L 840,740 L 860,740" stroke="#0000b2" stroke-width="4.0" fill="none"/>
<path d="M 560,740 L 580,740" stroke="#0000b2" stroke-width="4.0" fill="none"/>
<path d="M 420,760 L 420,740 L 440,740" stroke="#0000b2" stroke-width="4.0" fill="none"/>
<path d="M 840,420 L 860,420" stroke="#0000b2" stroke-width="4.0" fill="none"/>
<path d="M 980,420 L 1000,420 L 1000,400" stroke="#0000b2" stroke-width="4.0" fill="none"/>
<path d="M 800,420 L 820,420" stroke="#0000b2" stroke-width="4.0" fill="none"/>
<path d="M 420,420 L 440,420" stroke="#0000b2" stroke-width="4.0" fill="none"/>
<path d="M 560,420 L 580,420 L 580,400" stroke="#0000b2" stroke-width="4.0" fill="none"/>
<path d="M 380,420 L 400,420" stroke="#0000b2" stroke-width="4.0" fill="none"/>
<path d="M 500,260 L 540,260" stroke="#0000b2" stroke-width="4.0" fill="none"/>
<path d="M 980,460 L 1000,460" stroke="#0000b2" stroke-width="4.0" fill="none"/>
<path d="M 1020,460 L 1040,460" stroke="#0000b2" stroke-width="4.0" fill="none"/>
<path d="M 840,460 L 860,460" stroke="#0000b2" stroke-width="4.0" fill="none"/>
<path d="M 560,460 L 580,460" stroke="#0000b2" stroke-width="4.0" fill="none"/>
<path d="M 600,460 L 620,460" stroke="#0000b2" stroke-width="4.0" fill="none"/>
<path d="M 420,460 L 440,460" stroke="#0000b2" stroke-width="4.0" fill="none"/>
<path d="M 980,620 L 1000,620" stroke="#0000b2" stroke-width="4.0" fill="none"/>
<path d="M 840,620 L 860,620" stroke="#0000b2" stroke-width="4.0" fill="none"/>
<path d="M 560,620 L 580,620" stroke="#0000b2" stroke-width="4.0" fill="none"/>
<path d="M 420,620 L 440,620" stroke="#0000b2" stroke-width="4.0" fill="none"/>
<path d="M 860,180 L 900,180" stroke="#0000b2" stroke-width="4.0" fill="none"/>
<path d="M 980,500 L 1000,500" stroke="#0000b2" stroke-width="4.0" fill="none"/>
<path d="M 840,500 L 860,500" stroke="#0000b2" stroke-width="4.0" fill="none"/>
<path d="M 560,500 L 580,500" stroke="#0000b2" stroke-width="4.0" fill="none"/>
<path d="M 420,500 L 440,500" stroke="#0000b2" stroke-width="4.0" fill="none"/>
<path d="M 980,660 L 1000,660" stroke="#0000b2" stroke-width="4.0" fill="none"/>
<path d="M 840,660 L 860,660" stroke="#0000b2" stroke-width="4.0" fill="none"/>
<path d="M 560,660 L 580,660" stroke="#0000b2" stroke-width="4.0" fill="none"/>
<path d="M 420,660 L 440,660" stroke="#0000b2" stroke-width="4.0" fill="none"/>
<path d="M 440,220 L 480,220" stroke="#0000b2" stroke-width="4.0" fill="none"/>
<path d="M 860,220 L 900,220" stroke="#0000b2" stroke-width="4.0" fill="none"/>
<path d="M 500,220 L 540,220" stroke="#0000b2" stroke-width="4.0" fill="none"/>
<path d="M 980,380 L 1000,380 L 1000,360" stroke="#0000b2" stroke-width="4.0" fill="none"/>
<path d="M 560,380 L 580,380 L 580,360" stroke="#0000b2" stroke-width="4.0" fill="none"/>
<path d="M 420,380 L 440,380" stroke="#0000b2" stroke-width="4.0" fill="none"/>
<path d="M 840,380 L 860,380" stroke="#0000b2" stroke-width="4.0" fill="none"/>
<path d="M 980,540 L 1000,540" stroke="#0000b2" stroke-width="4.0" fill="none"/>
<path d="M 840,540 L 860,540" stroke="#0000b2" stroke-width="4.0" fill="none"/>
<path d="M 560,540 L 580,540" stroke="#0000b2" stroke-width="4.0" fill="none"/>
<path d="M 420,540 L 440,540" stroke="#0000b2" stroke-width="4.0" fill="none"/>
<path d="M 980,700 L 1000,700" stroke="#0000b2" stroke-width="4.0" fill="none"/>
<path d="M 840,700 L 860,700" stroke="#0000b2" stroke-width="4.0" fill="none"/>
<path d="M 560,700 L 580,700" stroke="#0000b2" stroke-width="4.0" fill="none"/>
<path d="M 420,700 L 440,700" stroke="#0000b2" stroke-width="4.0" fill="none"/>
<path d="M 580,460 L 590,460 L 600,460" stroke="#000000" stroke-width="4.0" fill="none"/>
<path d="M 580,500 L 590,500" stroke="#000000" stroke-width="4.0" fill="none"/>
<path d="M 580,540 L 590,540" stroke="#000000" stroke-width="4.0" fill="none"/>
<path d="M 580,580 L 590,580" stroke="#000000" stroke-width="4.0" fill="none"/>
<path d="M 580,620 L 590,620" stroke="#000000" stroke-width="4.0" fill="none"/>
<path d="M 580,660 L 590,660" stroke="#000000" stroke-width="4.0" fill="none"/>
<path d="M 580,700 L 590,700" stroke="#000000" stroke-width="4.0" fill="none"/>
<path d="M 580,740 L 590,740" stroke="#000000" stroke-width="4.0" fill="none"/>
<path d="M 400,420 L 410,420 L 420,420" stroke="#000000" stroke-width="4.0" fill="none"/>
<path d="M 420,460 L 410,460" stroke="#000000" stroke-width="4.0" fill="none"/>
<path d="M 420,500 L 410,500" stroke="#000000" stroke-width="4.0" fill="none"/>
<path d="M 420,540 L 410,540" stroke="#000000" stroke-width="4.0" fill="none"/>
<path d="M 420,580 L 410,580" stroke="#000000" stroke-width="4.0" fill="none"/>
<path d="M 420,620 L 410,620" stroke="#000000" stroke-width="4.0" fill="none"/>
<path d="M 420,660 L 410,660" stroke="#000000" stroke-width="4.0" fill="none"/>
<path d="M 420,700 L 410,700" stroke="#000000" stroke-width="4.0" fill="none"/>
<path d="M 580,354 L 580,360" stroke="#000000" stroke-width="4.0" fill="none"/>
<path d="M 1000,460 L 1010,460 L 1020,460" stroke="#000000" stroke-width="4.0" fill="none"/>
<path d="M 1000,500 L 1010,500" stroke="#000000" stroke-width="4.0" fill="none"/>
<path d="M 1000,540 L 1010,540" stroke="#000000" stroke-width="4.0" fill="none"/>
<path d="M 1000,580 L 1010,580" stroke="#000000" stroke-width="4.0" fill="none"/>
<path d="M 1000,620 L 1010,620" stroke="#000000" stroke-width="4.0" fill="none"/>
<path d="M 1000,660 L 1010,660" stroke="#000000" stroke-width="4.0" fill="none"/>
<path d="M 1000,700 L 1010,700" stroke="#000000" stroke-width="4.0" fill="none"/>
<path d="M 1000,740 L 1010,740" stroke="#000000" stroke-width="4.0" fill="none"/>
<path d="M 820,420 L 830,420 L 840,420" stroke="#000000" stroke-width="4.0" fill="none"/>
<path d="M 840,460 L 830,460" stroke="#000000" stroke-width="4.0" fill="none"/>
<path d="M 840,500 L 830,500" stroke="#000000" stroke-width="4.0" fill="none"/>
<path d="M 840,540 L 830,540" stroke="#000000" stroke-width="4.0" fill="none"/>
<path d="M 840,580 L 830,580" stroke="#000000" stroke-width="4.0" fill="none"/>
<path d="M 840,620 L 830,620" stroke="#000000" stroke-width="4.0" fill="none"/>
<path d="M 840,660 L 830,660" stroke="#000000" stroke-width="4.0" fill="none"/>
<path d="M 840,700 L 830,700" stroke="#000000" stroke-width="4.0" fill="none"/>
<path d="M 1000,354 L 1000,360" stroke="#000000" stroke-width="4.0" fill="none"/>
<path d="M 480,220 L 490,220 L 500,220" stroke="#000000" stroke-width="4.0" fill="none"/>
<path d="M 500,240 L 490,240" stroke="#000000" stroke-width="4.0" fill="none"/>
<path d="M 500,260 L 490,260" stroke="#000000" stroke-width="4.0" fill="none"/>
<path d="M 500,280 L 490,280" stroke="#000000" stroke-width="4.0" fill="none"/>
<path d="M 410,760 L 430,760" stroke="#000000" stroke-width="6.0" fill="none"/>
<path d="M 570,400 L 590,400" stroke="#000000" stroke-width="6.0" fill="none"/>
<path d="M 830,760 L 850,760" stroke="#000000" stroke-width="6.0" fill="none"/>
<path d="M 990,400 L 1010,400" stroke="#000000" stroke-width="6.0" fill="none"/>
<g>
</g>
<g>
<path d="M 860,180 L 846,172 L 846,188 Z" stroke="#000000" stroke-width="4.0" fill="none"/>
<text text-anchor="end" x="841.0" y="186.75" fill="#808080" style="font-size:18px">MainBus</text>
<circle cx="860.0" cy="180.0" r="2.0" stroke="#0000b2" stroke-width="4.0" fill="#0000b2" />
</g>
<g>
<circle cx="916.0" cy="180.0" r="9.0" stroke="#000000" stroke-width="4.0" fill="none" />
<circle cx="916.0" cy="180.0" r="15.0" stroke="#000000" stroke-width="4.0" fill="none" />
<text text-anchor="start" x="945.0" y="189.0" fill="#000000" style="font-size:24px"><tspan style="font-style:italic;">MAIN</tspan></text>
<circle cx="900.0" cy="180.0" r="2.0" stroke="#0000b2" stroke-width="4.0" fill="#0000b2" />
</g>
<g>
<path d="M 860,220 L 846,212 L 846,228 Z" stroke="#000000" stroke-width="4.0" fill="none"/>
<text text-anchor="end" x="841.0" y="226.75" fill="#808080" style="font-size:18px">MemData</text>
<circle cx="860.0" cy="220.0" r="2.0" stroke="#0000b2" stroke-width="4.0" fill="#0000b2" />
</g>
<g>
<text text-anchor="end" x="578.0" y="457.0" fill="#808080" style="font-size:12px">0</text>
<text text-anchor="end" x="578.0" y="497.0" fill="#808080" style="font-size:12px">1</text>
<text text-anchor="end" x="578.0" y="537.0" fill="#808080" style="font-size:12px">2</text>
<text text-anchor="end" x="578.0" y="577.0" fill="#808080" style="font-size:12px">3</text>
<text text-anchor="end" x="578.0" y="617.0" fill="#808080" style="font-size:12px">4</text>
<text text-anchor="end" x="578.0" y="657.0" fill="#808080" style="font-size:12px">5</text>
<text text-anchor="end" x="578.0" y="697.0" fill="#808080" style="font-size:12px">6</text>
<text text-anchor="end" x="578.0" y="737.0" fill="#808080" style="font-size:12px">7</text>
<text text-anchor="start" x="602.0" y="457.0" fill="#808080" style="font-size:12px">0-7</text>
<path d="M 588,458 L 592,458 L 592,742 L 588,742 Z" stroke="#000000" stroke-width="4.0" fill="#000000" fill-opacity="1.0"/>
<circle cx="580.0" cy="460.0" r="2.0" stroke="#0000b2" stroke-width="4.0" fill="#0000b2" />
<circle cx="580.0" cy="500.0" r="2.0" stroke="#0000b2" stroke-width="4.0" fill="#0000b2" />
<circle cx="580.0" cy="540.0" r="2.0" stroke="#0000b2" stroke-width="4.0" fill="#0000b2" />
<circle cx="580.0" cy="580.0" r="2.0" stroke="#0000b2" stroke-width="4.0" fill="#0000b2" />
<circle cx="580.0" cy="620.0" r="2.0" stroke="#0000b2" stroke-width="4.0" fill="#0000b2" />
<circle cx="580.0" cy="660.0" r="2.0" stroke="#0000b2" stroke-width="4.0" fill="#0000b2" />
<circle cx="580.0" cy="700.0" r="2.0" stroke="#0000b2" stroke-width="4.0" fill="#0000b2" />
<circle cx="580.0" cy="740.0" r="2.0" stroke="#0000b2" stroke-width="4.0" fill="#0000b2" />
<circle cx="600.0" cy="460.0" r="2.0" stroke="#b20000" stroke-width="4.0" fill="#b20000" />
</g>
<g>
<path d="M 620,460 L 634,468 L 634,452 Z" stroke="#000000" stroke-width="4.0" fill="none"/>
<text text-anchor="start" x="639.0" y="466.75" fill="#808080" style="font-size:18px">MainBus</text>
<circle cx="620.0" cy="460.0" r="2.0" stroke="#0000b2" stroke-width="4.0" fill="#0000b2" />
</g>
<g>
<path d="M 450,370 L 442,370 L 442,390 L 450,390" stroke="#000000" stroke-width="4.0" fill="none"/>
<text text-anchor="start" x="455.0" y="386.75" fill="#808080" style="font-size:18px"><tspan style="text-decoration:overline;">OE1</tspan></text>
<path d="M 550,370 L 558,370 L 558,390 L 550,390" stroke="#000000" stroke-width="4.0" fill="none"/>
<text text-anchor="end" x="545.0" y="386.75" fill="#808080" style="font-size:18px">VCC</text>
<path d="M 450,410 L 442,410 L 442,430 L 450,430" stroke="#000000" stroke-width="4.0" fill="none"/>
<text text-anchor="start" x="455.0" y="426.75" fill="#808080" style="font-size:18px">0D</text>
<path d="M 550,410 L 558,410 L 558,430 L 550,430" stroke="#000000" stroke-width="4.0" fill="none"/>
<text text-anchor="end" x="545.0" y="426.75" fill="#808080" style="font-size:18px"><tspan style="text-decoration:overline;">OE2</tspan></text>
<path d="M 450,450 L 442,450 L 442,470 L 450,470" stroke="#000000" stroke-width="4.0" fill="none"/>
<text text-anchor="start" x="455.0" y="466.75" fill="#808080" style="font-size:18px">1D</text>
<path d="M 550,450 L 558,450 L 558,470 L 550,470" stroke="#000000" stroke-width="4.0" fill="none"/>
<text text-anchor="end" x="545.0" y="466.75" fill="#808080" style="font-size:18px">0O</text>
<path d="M 450,490 L 442,490 L 442,510 L 450,510" stroke="#000000" stroke-width="4.0" fill="none"/>
<text text-anchor="start" x="455.0" y="506.75" fill="#808080" style="font-size:18px">2D</text>
<path d="M 550,490 L 558,490 L 558,510 L 550,510" stroke="#000000" stroke-width="4.0" fill="none"/>
<text text-anchor="end" x="545.0" y="506.75" fill="#808080" style="font-size:18px">1O</text>
<path d="M 450,530 L 442,530 L 442,550 L 450,550" stroke="#000000" stroke-width="4.0" fill="none"/>
<text text-anchor="start" x="455.0" y="546.75" fill="#808080" style="font-size:18px">3D</text>
<path d="M 550,530 L 558,530 L 558,550 L 550,550" stroke="#000000" stroke-width="4.0" fill="none"/>
<text text-anchor="end" x="545.0" y="546.75" fill="#808080" style="font-size:18px">2O</text>
<path d="M 450,570 L 442,570 L 442,590 L 450,590" stroke="#000000" stroke-width="4.0" fill="none"/>
<text text-anchor="start" x="455.0" y="586.75" fill="#808080" style="font-size:18px">4D</text>
<path d="M 550,570 L 558,570 L 558,590 L 550,590" stroke="#000000" stroke-width="4.0" fill="none"/>
<text text-anchor="end" x="545.0" y="586.75" fill="#808080" style="font-size:18px">3O</text>
<path d="M 450,610 L 442,610 L 442,630 L 450,630" stroke="#000000" stroke-width="4.0" fill="none"/>
<text text-anchor="start" x="455.0" y="626.75" fill="#808080" style="font-size:18px">5D</text>
<path d="M 550,610 L 558,610 L 558,630 L 550,630" stroke="#000000" stroke-width="4.0" fill="none"/>
<text text-anchor="end" x="545.0" y="626.75" fill="#808080" style="font-size:18px">4O</text>
<path d="M 450,650 L 442,650 L 442,670 L 450,670" stroke="#000000" stroke-width="4.0" fill="none"/>
<text text-anchor="start" x="455.0" y="666.75" fill="#808080" style="font-size:18px">6D</text>
<path d="M 550,650 L 558,650 L 558,670 L 550,670" stroke="#000000" stroke-width="4.0" fill="none"/>
<text text-anchor="end" x="545.0" y="666.75" fill="#808080" style="font-size:18px">5O</text>
<path d="M 450,690 L 442,690 L 442,710 L 450,710" stroke="#000000" stroke-width="4.0" fill="none"/>
<text text-anchor="start" x="455.0" y="706.75" fill="#808080" style="font-size:18px">7D</text>
<path d="M 550,690 L 558,690 L 558,710 L 550,710" stroke="#000000" stroke-width="4.0" fill="none"/>
<text text-anchor="end" x="545.0" y="706.75" fill="#808080" style="font-size:18px">6O</text>
<path d="M 450,730 L 442,730 L 442,750 L 450,750" stroke="#000000" stroke-width="4.0" fill="none"/>
<text text-anchor="start" x="455.0" y="746.75" fill="#808080" style="font-size:18px">GND</text>
<path d="M 550,730 L 558,730 L 558,750 L 550,750" stroke="#000000" stroke-width="4.0" fill="none"/>
<text text-anchor="end" x="545.0" y="746.75" fill="#808080" style="font-size:18px">7O</text>
<path d="M 450,360 L 490,360 C 490,366 494,370 500,370 C 506,370 510,366 510,360 L 550,360 L 550,760 L 450,760 Z" stroke="#000000" stroke-width="4.0" fill="none"/>
<text text-anchor="end" x="500.0" y="399.0" fill="#000000" style="font-size:24px" transform="rotate(-90,500.0,390.0)" >74541</text>
<circle cx="440.0" cy="380.0" r="2.0" stroke="#0000b2" stroke-width="4.0" fill="#0000b2" />
<circle cx="440.0" cy="420.0" r="2.0" stroke="#0000b2" stroke-width="4.0" fill="#0000b2" />
<circle cx="440.0" cy="460.0" r="2.0" stroke="#0000b2" stroke-width="4.0" fill="#0000b2" />
<circle cx="440.0" cy="500.0" r="2.0" stroke="#0000b2" stroke-width="4.0" fill="#0000b2" />
<circle cx="440.0" cy="540.0" r="2.0" stroke="#0000b2" stroke-width="4.0" fill="#0000b2" />
<circle cx="440.0" cy="580.0" r="2.0" stroke="#0000b2" stroke-width="4.0" fill="#0000b2" />
<circle cx="440.0" cy="620.0" r="2.0" stroke="#0000b2" stroke-width="4.0" fill="#0000b2" />
<circle cx="440.0" cy="660.0" r="2.0" stroke="#0000b2" stroke-width="4.0" fill="#0000b2" />
<circle cx="440.0" cy="700.0" r="2.0" stroke="#0000b2" stroke-width="4.0" fill="#0000b2" />
<circle cx="440.0" cy="740.0" r="2.0" stroke="#0000b2" stroke-width="4.0" fill="#0000b2" />
<circle cx="560.0" cy="740.0" r="2.0" stroke="#b20000" stroke-width="4.0" fill="#b20000" />
<circle cx="560.0" cy="700.0" r="2.0" stroke="#b20000" stroke-width="4.0" fill="#b20000" />
<circle cx="560.0" cy="660.0" r="2.0" stroke="#b20000" stroke-width="4.0" fill="#b20000" />
<circle cx="560.0" cy="620.0" r="2.0" stroke="#b20000" stroke-width="4.0" fill="#b20000" />
<circle cx="560.0" cy="580.0" r="2.0" stroke="#b20000" stroke-width="4.0" fill="#b20000" />
<circle cx="560.0" cy="540.0" r="2.0" stroke="#b20000" stroke-width="4.0" fill="#b20000" />
<circle cx="560.0" cy="500.0" r="2.0" stroke="#b20000" stroke-width="4.0" fill="#b20000" />
<circle cx="560.0" cy="460.0" r="2.0" stroke="#b20000" stroke-width="4.0" fill="#b20000" />
<circle cx="560.0" cy="420.0" r="2.0" stroke="#0000b2" stroke-width="4.0" fill="#0000b2" />
<circle cx="560.0" cy="380.0" r="2.0" stroke="#0000b2" stroke-width="4.0" fill="#0000b2" />
</g>
<g>
<text text-anchor="end" x="398.0" y="417.0" fill="#808080" style="font-size:12px">0-7</text>
<text text-anchor="start" x="422.0" y="417.0" fill="#808080" style="font-size:12px">0</text>
<text text-anchor="start" x="422.0" y="457.0" fill="#808080" style="font-size:12px">1</text>
<text text-anchor="start" x="422.0" y="497.0" fill="#808080" style="font-size:12px">2</text>
<text text-anchor="start" x="422.0" y="537.0" fill="#808080" style="font-size:12px">3</text>
<text text-anchor="start" x="422.0" y="577.0" fill="#808080" style="font-size:12px">4</text>
<text text-anchor="start" x="422.0" y="617.0" fill="#808080" style="font-size:12px">5</text>
<text text-anchor="start" x="422.0" y="657.0" fill="#808080" style="font-size:12px">6</text>
<text text-anchor="start" x="422.0" y="697.0" fill="#808080" style="font-size:12px">7</text>
<path d="M 408,418 L 412,418 L 412,702 L 408,702 Z" stroke="#000000" stroke-width="4.0" fill="#000000" fill-opacity="1.0"/>
<circle cx="400.0" cy="420.0" r="2.0" stroke="#0000b2" stroke-width="4.0" fill="#0000b2" />
<circle cx="420.0" cy="420.0" r="2.0" stroke="#b20000" stroke-width="4.0" fill="#b20000" />
<circle cx="420.0" cy="460.0" r="2.0" stroke="#b20000" stroke-width="4.0" fill="#b20000" />
<circle cx="420.0" cy="500.0" r="2.0" stroke="#b20000" stroke-width="4.0" fill="#b20000" />
<circle cx="420.0" cy="540.0" r="2.0" stroke="#b20000" stroke-width="4.0" fill="#b20000" />
<circle cx="420.0" cy="580.0" r="2.0" stroke="#b20000" stroke-width="4.0" fill="#b20000" />
<circle cx="420.0" cy="620.0" r="2.0" stroke="#b20000" stroke-width="4.0" fill="#b20000" />
<circle cx="420.0" cy="660.0" r="2.0" stroke="#b20000" stroke-width="4.0" fill="#b20000" />
<circle cx="420.0" cy="700.0" r="2.0" stroke="#b20000" stroke-width="4.0" fill="#b20000" />
</g>
<g>
<circle cx="420.0" cy="760.0" r="2.0" stroke="#b20000" stroke-width="4.0" fill="#b20000" />
</g>
<g>
<path d="M 570,364 L 580,351 L 590,364" stroke="#000000" stroke-width="4.0" fill="none"/>
<circle cx="580.0" cy="360.0" r="2.0" stroke="#b20000" stroke-width="4.0" fill="#b20000" />
</g>
<g>
<circle cx="580.0" cy="400.0" r="2.0" stroke="#b20000" stroke-width="4.0" fill="#b20000" />
</g>
<g>
<text text-anchor="end" x="998.0" y="457.0" fill="#808080" style="font-size:12px">0</text>
<text text-anchor="end" x="998.0" y="497.0" fill="#808080" style="font-size:12px">1</text>
<text text-anchor="end" x="998.0" y="537.0" fill="#808080" style="font-size:12px">2</text>
<text text-anchor="end" x="998.0" y="577.0" fill="#808080" style="font-size:12px">3</text>
<text text-anchor="end" x="998.0" y="617.0" fill="#808080" style="font-size:12px">4</text>
<text text-anchor="end" x="998.0" y="657.0" fill="#808080" style="font-size:12px">5</text>
<text text-anchor="end" x="998.0" y="697.0" fill="#808080" style="font-size:12px">6</text>
<text text-anchor="end" x="998.0" y="737.0" fill="#808080" style="font-size:12px">7</text>
<text text-anchor="start" x="1022.0" y="457.0" fill="#808080" style="font-size:12px">0-7</text>
<path d="M 1008,458 L 1012,458 L 1012,742 L 1008,742 Z" stroke="#000000" stroke-width="4.0" fill="#000000" fill-opacity="1.0"/>
<circle cx="1000.0" cy="460.0" r="2.0" stroke="#0000b2" stroke-width="4.0" fill="#0000b2" />
<circle cx="1000.0" cy="500.0" r="2.0" stroke="#0000b2" stroke-width="4.0" fill="#0000b2" />
<circle cx="1000.0" cy="540.0" r="2.0" stroke="#0000b2" stroke-width="4.0" fill="#0000b2" />
<circle cx="1000.0" cy="580.0" r="2.0" stroke="#0000b2" stroke-width="4.0" fill="#0000b2" />
<circle cx="1000.0" cy="620.0" r="2.0" stroke="#0000b2" stroke-width="4.0" fill="#0000b2" />
<circle cx="1000.0" cy="660.0" r="2.0" stroke="#0000b2" stroke-width="4.0" fill="#0000b2" />
<circle cx="1000.0" cy="700.0" r="2.0" stroke="#0000b2" stroke-width="4.0" fill="#0000b2" />
<circle cx="1000.0" cy="740.0" r="2.0" stroke="#0000b2" stroke-width="4.0" fill="#0000b2" />
<circle cx="1020.0" cy="460.0" r="2.0" stroke="#b20000" stroke-width="4.0" fill="#b20000" />
</g>
<g>
<path d="M 870,370 L 862,370 L 862,390 L 870,390" stroke="#000000" stroke-width="4.0" fill="none"/>
<text text-anchor="start" x="875.0" y="386.75" fill="#808080" style="font-size:18px"><tspan style="text-decoration:overline;">OE1</tspan></text>
<path d="M 970,370 L 978,370 L 978,390 L 970,390" stroke="#000000" stroke-width="4.0" fill="none"/>
<text text-anchor="end" x="965.0" y="386.75" fill="#808080" style="font-size:18px">VCC</text>
<path d="M 870,410 L 862,410 L 862,430 L 870,430" stroke="#000000" stroke-width="4.0" fill="none"/>
<text text-anchor="start" x="875.0" y="426.75" fill="#808080" style="font-size:18px">0D</text>
<path d="M 970,410 L 978,410 L 978,430 L 970,430" stroke="#000000" stroke-width="4.0" fill="none"/>
<text text-anchor="end" x="965.0" y="426.75" fill="#808080" style="font-size:18px"><tspan style="text-decoration:overline;">OE2</tspan></text>
<path d="M 870,450 L 862,450 L 862,470 L 870,470" stroke="#000000" stroke-width="4.0" fill="none"/>
<text text-anchor="start" x="875.0" y="466.75" fill="#808080" style="font-size:18px">1D</text>
<path d="M 970,450 L 978,450 L 978,470 L 970,470" stroke="#000000" stroke-width="4.0" fill="none"/>
<text text-anchor="end" x="965.0" y="466.75" fill="#808080" style="font-size:18px">0O</text>
<path d="M 870,490 L 862,490 L 862,510 L 870,510" stroke="#000000" stroke-width="4.0" fill="none"/>
<text text-anchor="start" x="875.0" y="506.75" fill="#808080" style="font-size:18px">2D</text>
<path d="M 970,490 L 978,490 L 978,510 L 970,510" stroke="#000000" stroke-width="4.0" fill="none"/>
<text text-anchor="end" x="965.0" y="506.75" fill="#808080" style="font-size:18px">1O</text>
<path d="M 870,530 L 862,530 L 862,550 L 870,550" stroke="#000000" stroke-width="4.0" fill="none"/>
<text text-anchor="start" x="875.0" y="546.75" fill="#808080" style="font-size:18px">3D</text>
<path d="M 970,530 L 978,530 L 978,550 L 970,550" stroke="#000000" stroke-width="4.0" fill="none"/>
<text text-anchor="end" x="965.0" y="546.75" fill="#808080" style="font-size:18px">2O</text>
<path d="M 870,570 L 862,570 L 862,590 L 870,590" stroke="#000000" stroke-width="4.0" fill="none"/>
<text text-anchor="start" x="875.0" y="586.75" fill="#808080" style="font-size:18px">4D</text>
<path d="M 970,570 L 978,570 L 978,590 L 970,590" stroke="#000000" stroke-width="4.0" fill="none"/>
<text text-anchor="end" x="965.0" y="586.75" fill="#808080" style="font-size:18px">3O</text>
<path d="M 870,610 L 862,610 L 862,630 L 870,630" stroke="#000000" stroke-width="4.0" fill="none"/>
<text text-anchor="start" x="875.0" y="626.75" fill="#808080" style="font-size:18px">5D</text>
<path d="M 970,610 L 978,610 L 978,630 L 970,630" stroke="#000000" stroke-width="4.0" fill="none"/>
<text text-anchor="end" x="965.0" y="626.75" fill="#808080" style="font-size:18px">4O</text>
<path d="M 870,650 L 862,650 L 862,670 L 870,670" stroke="#000000" stroke-width="4.0" fill="none"/>
<text text-anchor="start" x="875.0" y="666.75" fill="#808080" style="font-size:18px">6D</text>
<path d="M 970,650 L 978,650 L 978,670 L 970,670" stroke="#000000" stroke-width="4.0" fill="none"/>
<text text-anchor="end" x="965.0" y="666.75" fill="#808080" style="font-size:18px">5O</text>
<path d="M 870,690 L 862,690 L 862,710 L 870,710" stroke="#000000" stroke-width="4.0" fill="none"/>
<text text-anchor="start" x="875.0" y="706.75" fill="#808080" style="font-size:18px">7D</text>
<path d="M 970,690 L 978,690 L 978,710 L 970,710" stroke="#000000" stroke-width="4.0" fill="none"/>
<text text-anchor="end" x="965.0" y="706.75" fill="#808080" style="font-size:18px">6O</text>
<path d="M 870,730 L 862,730 L 862,750 L 870,750" stroke="#000000" stroke-width="4.0" fill="none"/>
<text text-anchor="start" x="875.0" y="746.75" fill="#808080" style="font-size:18px">GND</text>
<path d="M 970,730 L 978,730 L 978,750 L 970,750" stroke="#000000" stroke-width="4.0" fill="none"/>
<text text-anchor="end" x="965.0" y="746.75" fill="#808080" style="font-size:18px">7O</text>
<path d="M 870,360 L 910,360 C 910,366 914,370 920,370 C 926,370 930,366 930,360 L 970,360 L 970,760 L 870,760 Z" stroke="#000000" stroke-width="4.0" fill="none"/>
<text text-anchor="end" x="920.0" y="399.0" fill="#000000" style="font-size:24px" transform="rotate(-90,920.0,390.0)" >74541</text>
<circle cx="860.0" cy="380.0" r="2.0" stroke="#0000b2" stroke-width="4.0" fill="#0000b2" />
<circle cx="860.0" cy="420.0" r="2.0" stroke="#0000b2" stroke-width="4.0" fill="#0000b2" />
<circle cx="860.0" cy="460.0" r="2.0" stroke="#0000b2" stroke-width="4.0" fill="#0000b2" />
<circle cx="860.0" cy="500.0" r="2.0" stroke="#0000b2" stroke-width="4.0" fill="#0000b2" />
<circle cx="860.0" cy="540.0" r="2.0" stroke="#0000b2" stroke-width="4.0" fill="#0000b2" />
<circle cx="860.0" cy="580.0" r="2.0" stroke="#0000b2" stroke-width="4.0" fill="#0000b2" />
<circle cx="860.0" cy="620.0" r="2.0" stroke="#0000b2" stroke-width="4.0" fill="#0000b2" />
<circle cx="860.0" cy="660.0" r="2.0" stroke="#0000b2" stroke-width="4.0" fill="#0000b2" />
<circle cx="860.0" cy="700.0" r="2.0" stroke="#0000b2" stroke-width="4.0" fill="#0000b2" />
<circle cx="860.0" cy="740.0" r="2.0" stroke="#0000b2" stroke-width="4.0" fill="#0000b2" />
<circle cx="980.0" cy="740.0" r="2.0" stroke="#b20000" stroke-width="4.0" fill="#b20000" />
<circle cx="980.0" cy="700.0" r="2.0" stroke="#b20000" stroke-width="4.0" fill="#b20000" />
<circle cx="980.0" cy="660.0" r="2.0" stroke="#b20000" stroke-width="4.0" fill="#b20000" />
<circle cx="980.0" cy="620.0" r="2.0" stroke="#b20000" stroke-width="4.0" fill="#b20000" />
<circle cx="980.0" cy="580.0" r="2.0" stroke="#b20000" stroke-width="4.0" fill="#b20000" />
<circle cx="980.0" cy="540.0" r="2.0" stroke="#b20000" stroke-width="4.0" fill="#b20000" />
<circle cx="980.0" cy="500.0" r="2.0" stroke="#b20000" stroke-width="4.0" fill="#b20000" />
<circle cx="980.0" cy="460.0" r="2.0" stroke="#b20000" stroke-width="4.0" fill="#b20000" />
<circle cx="980.0" cy="420.0" r="2.0" stroke="#0000b2" stroke-width="4.0" fill="#0000b2" />
<circle cx="980.0" cy="380.0" r="2.0" stroke="#0000b2" stroke-width="4.0" fill="#0000b2" />
</g>
<g>
<text text-anchor="end" x="818.0" y="417.0" fill="#808080" style="font-size:12px">0-7</text>
<text text-anchor="start" x="842.0" y="417.0" fill="#808080" style="font-size:12px">0</text>
<text text-anchor="start" x="842.0" y="457.0" fill="#808080" style="font-size:12px">1</text>
<text text-anchor="start" x="842.0" y="497.0" fill="#808080" style="font-size:12px">2</text>
<text text-anchor="start" x="842.0" y="537.0" fill="#808080" style="font-size:12px">3</text>
<text text-anchor="start" x="842.0" y="577.0" fill="#808080" style="font-size:12px">4</text>
<text text-anchor="start" x="842.0" y="617.0" fill="#808080" style="font-size:12px">5</text>
<text text-anchor="start" x="842.0" y="657.0" fill="#808080" style="font-size:12px">6</text>
<text text-anchor="start" x="842.0" y="697.0" fill="#808080" style="font-size:12px">7</text>
<path d="M 828,418 L 832,418 L 832,702 L 828,702 Z" stroke="#000000" stroke-width="4.0" fill="#000000" fill-opacity="1.0"/>
<circle cx="820.0" cy="420.0" r="2.0" stroke="#0000b2" stroke-width="4.0" fill="#0000b2" />
<circle cx="840.0" cy="420.0" r="2.0" stroke="#b20000" stroke-width="4.0" fill="#b20000" />
<circle cx="840.0" cy="460.0" r="2.0" stroke="#b20000" stroke-width="4.0" fill="#b20000" />
<circle cx="840.0" cy="500.0" r="2.0" stroke="#b20000" stroke-width="4.0" fill="#b20000" />
<circle cx="840.0" cy="540.0" r="2.0" stroke="#b20000" stroke-width="4.0" fill="#b20000" />
<circle cx="840.0" cy="580.0" r="2.0" stroke="#b20000" stroke-width="4.0" fill="#b20000" />
<circle cx="840.0" cy="620.0" r="2.0" stroke="#b20000" stroke-width="4.0" fill="#b20000" />
<circle cx="840.0" cy="660.0" r="2.0" stroke="#b20000" stroke-width="4.0" fill="#b20000" />
<circle cx="840.0" cy="700.0" r="2.0" stroke="#b20000" stroke-width="4.0" fill="#b20000" />
</g>
<g>
<circle cx="840.0" cy="760.0" r="2.0" stroke="#b20000" stroke-width="4.0" fill="#b20000" />
</g>
<g>
<path d="M 990,364 L 1000,351 L 1010,364" stroke="#000000" stroke-width="4.0" fill="none"/>
<circle cx="1000.0" cy="360.0" r="2.0" stroke="#b20000" stroke-width="4.0" fill="#b20000" />
</g>
<g>
<circle cx="1000.0" cy="400.0" r="2.0" stroke="#b20000" stroke-width="4.0" fill="#b20000" />
</g>
<g>
<path d="M 380,420 L 366,412 L 366,428 Z" stroke="#000000" stroke-width="4.0" fill="none"/>
<text text-anchor="end" x="361.0" y="426.75" fill="#808080" style="font-size:18px">MemData</text>
<circle cx="380.0" cy="420.0" r="2.0" stroke="#0000b2" stroke-width="4.0" fill="#0000b2" />
</g>
<g>
<path d="M 1040,460 L 1054,468 L 1054,452 Z" stroke="#000000" stroke-width="4.0" fill="none"/>
<text text-anchor="start" x="1059.0" y="466.75" fill="#808080" style="font-size:18px">MemData</text>
<circle cx="1040.0" cy="460.0" r="2.0" stroke="#0000b2" stroke-width="4.0" fill="#0000b2" />
</g>
<g>
<path d="M 800,420 L 786,412 L 786,428 Z" stroke="#000000" stroke-width="4.0" fill="none"/>
<text text-anchor="end" x="781.0" y="426.75" fill="#808080" style="font-size:18px">MainBus</text>
<circle cx="800.0" cy="420.0" r="2.0" stroke="#0000b2" stroke-width="4.0" fill="#0000b2" />
</g>
<g>
<path d="M 420,380 L 406,372 L 406,388 Z" stroke="#000000" stroke-width="4.0" fill="none"/>
<text text-anchor="end" x="401.0" y="386.75" fill="#808080" style="font-size:18px">MemBridge-Assert</text>
<circle cx="420.0" cy="380.0" r="2.0" stroke="#0000b2" stroke-width="4.0" fill="#0000b2" />
</g>
<g>
<circle cx="916.0" cy="220.0" r="9.0" stroke="#000000" stroke-width="4.0" fill="none" />
<circle cx="916.0" cy="220.0" r="15.0" stroke="#000000" stroke-width="4.0" fill="none" />
<text text-anchor="start" x="945.0" y="229.0" fill="#000000" style="font-size:24px"><tspan style="font-style:italic;">MEM</tspan></text>
<circle cx="900.0" cy="220.0" r="2.0" stroke="#0000b2" stroke-width="4.0" fill="#0000b2" />
</g>
<g>
<path d="M 840,380 L 826,372 L 826,388 Z" stroke="#000000" stroke-width="4.0" fill="none"/>
<text text-anchor="end" x="821.0" y="386.75" fill="#808080" style="font-size:18px">MemBridge-Dir</text>
<circle cx="840.0" cy="380.0" r="2.0" stroke="#0000b2" stroke-width="4.0" fill="#0000b2" />
</g>
<g>
<path d="M 409,205 L 439,205 L 439,235 L 409,235 Z" stroke="#000000" stroke-width="4.0" fill="none"/>
<circle cx="424.0" cy="220.0" r="9.0" stroke="#000000" stroke-width="4.0" fill="none" />
<text text-anchor="end" x="395.0" y="229.0" fill="#000000" style="font-size:24px"><tspan style="font-style:italic;">Control</tspan></text>
<circle cx="440.0" cy="220.0" r="2.0" stroke="#b20000" stroke-width="4.0" fill="#b20000" />
</g>
<g>
<text text-anchor="end" x="478.0" y="217.0" fill="#808080" style="font-size:12px">0-3</text>
<text text-anchor="start" x="502.0" y="217.0" fill="#808080" style="font-size:12px">0</text>
<text text-anchor="start" x="502.0" y="237.0" fill="#808080" style="font-size:12px">1</text>
<text text-anchor="start" x="502.0" y="257.0" fill="#808080" style="font-size:12px">2</text>
<text text-anchor="start" x="502.0" y="277.0" fill="#808080" style="font-size:12px">3</text>
<path d="M 488,218 L 492,218 L 492,282 L 488,282 Z" stroke="#000000" stroke-width="4.0" fill="#000000" fill-opacity="1.0"/>
<circle cx="480.0" cy="220.0" r="2.0" stroke="#0000b2" stroke-width="4.0" fill="#0000b2" />
<circle cx="500.0" cy="220.0" r="2.0" stroke="#b20000" stroke-width="4.0" fill="#b20000" />
<circle cx="500.0" cy="240.0" r="2.0" stroke="#b20000" stroke-width="4.0" fill="#b20000" />
<circle cx="500.0" cy="260.0" r="2.0" stroke="#b20000" stroke-width="4.0" fill="#b20000" />
<circle cx="500.0" cy="280.0" r="2.0" stroke="#b20000" stroke-width="4.0" fill="#b20000" />
</g>
<g>
<path d="M 540,260 L 554,268 L 554,252 Z" stroke="#000000" stroke-width="4.0" fill="none"/>
<text text-anchor="start" x="559.0" y="266.75" fill="#808080" style="font-size:18px">MemBridge-Dir</text>
<circle cx="540.0" cy="260.0" r="2.0" stroke="#0000b2" stroke-width="4.0" fill="#0000b2" />
</g>
<g>
<path d="M 540,220 L 554,228 L 554,212 Z" stroke="#000000" stroke-width="4.0" fill="none"/>
<text text-anchor="start" x="559.0" y="226.75" fill="#808080" style="font-size:18px">MemBridge-Assert</text>
<circle cx="540.0" cy="220.0" r="2.0" stroke="#0000b2" stroke-width="4.0" fill="#0000b2" />
</g>
</g>
</svg>